<svg id="Capa_1" enable-background="new 0 0 512 512" height="512" viewBox="0 0 512 512" width="512" xmlns="http://www.w3.org/2000/svg"><g><path d="m207.098 304.902c-57.097-57.098-150.001-57.098-207.098 0l21.213 21.213c45.4-45.399 119.271-45.399 164.672 0z" fill="#7befe7"/><path d="m185.885 326.115c45.4 45.4 45.4 119.271 0 164.672l21.213 21.213c57.097-57.097 57.097-150.001 0-207.098z" fill="#64e0db"/><path d="m116.942 187.672h30v115h-30z" fill="#64e0db" transform="matrix(.707 -.707 .707 .707 -134.718 165.106)"/><path d="m254.828 325.558h30v115h-30z" fill="#00c7c7" transform="matrix(.707 -.707 .707 .707 -191.832 302.992)"/><path d="m473.803 38.197c-50.929-50.929-133.797-50.93-184.726 0l-49.434 49.433 24.357 43.37 38.92 19.907 49.433-49.433c7.77-7.77 18.1-12.048 29.087-12.048 10.988 0 21.317 4.279 29.086 12.048l43.474-21.474z" fill="#ff5b5b"/><path d="m473.803 38.197-63.277 63.277c7.77 7.769 12.049 18.099 12.049 29.087s-4.279 21.317-12.048 29.087l-49.434 49.433 19.907 48.919 43.37 14.357 49.433-49.434c50.929-50.929 50.929-133.797 0-184.726z" fill="#d24380"/><path d="m337.02 219.052h65.27v89.487h-65.27z" fill="#e2e2eb" transform="matrix(.707 -.707 .707 .707 -78.262 338.65)"/><path d="m215.57 97.602h65.27v89.487h-65.27z" fill="#f4f4f7" transform="matrix(.707 -.707 .707 .707 -27.956 217.198)"/><path d="m236.491 275.509h-80v80h.001l44.508-34.509z" fill="#f4f4f7"/><path d="m236.491 275.509-79.999 80h79.999z" fill="#e2e2eb"/><path d="m171.491 340.509v-50h50l19.509-7.509 10.491-22.491h-110v110l21.509-13.509z" fill="#5a5a5a"/><path d="m251.491 260.509-30 30v50h-50l-30 30h110z" fill="#444"/><circle cx="70.777" cy="184.008" fill="#f4f4f7" r="29"/><path d="m70.777 227.987c-11.267 0-22.535-4.289-31.112-12.867-17.156-17.155-17.156-45.07 0-62.225 17.155-17.157 45.07-17.156 62.225 0 17.156 17.155 17.156 45.07 0 62.225-8.578 8.578-19.846 12.867-31.113 12.867zm0-57.979c-3.74 0-7.255 1.456-9.9 4.1-2.644 2.645-4.1 6.16-4.1 9.9 0 3.739 1.456 7.255 4.1 9.899 2.645 2.644 6.16 4.101 9.9 4.101 3.739 0 7.255-1.457 9.899-4.101 2.644-2.645 4.101-6.16 4.101-9.899 0-3.74-1.457-7.255-4.101-9.9-2.644-2.644-6.159-4.1-9.899-4.1z" fill="#5a5a5a"/><circle cx="330.992" cy="444.223" fill="#e2e2eb" r="29"/><path d="m330.993 488.202c-11.268 0-22.535-4.289-31.113-12.867-17.156-17.155-17.156-45.07 0-62.225 17.155-17.156 45.07-17.156 62.225 0 17.156 17.155 17.156 45.07 0 62.225-8.578 8.579-19.845 12.867-31.112 12.867zm-.001-57.979c-3.739 0-7.255 1.457-9.899 4.101-2.644 2.645-4.101 6.16-4.101 9.899 0 3.74 1.457 7.255 4.101 9.9 2.645 2.644 6.16 4.1 9.899 4.1 3.74 0 7.255-1.456 9.9-4.1 2.644-2.645 4.1-6.16 4.1-9.9 0-3.739-1.456-7.255-4.1-9.899-2.644-2.645-6.16-4.101-9.9-4.101z" fill="#444"/></g></svg>